<?xml version="1.0" encoding="UTF-8"?>
<svg width="58px" height="58px" viewBox="0 0 58 58" version="1.1" xmlns="http://www.w3.org/2000/svg" xmlns:xlink="http://www.w3.org/1999/xlink">
    <title>Artboard</title>
    <defs>
        <filter id="filter-1">
            <feColorMatrix in="SourceGraphic" type="matrix" values="0 0 0 0 0.043137 0 0 0 0 0.705882 0 0 0 0 0.580392 0 0 0 1.000000 0"></feColorMatrix>
        </filter>
    </defs>
    <g id="Artboard" stroke="none" stroke-width="1" fill="none" fill-rule="evenodd">
        <g filter="url(#filter-1)" id="tick">
            <g>
                <path d="M56.3499801,7.65937233 C55.4811169,6.78158787 54.0713483,6.78007545 53.2024851,7.65564945 L26.4983231,34.5164357 L16.8635393,23.9628953 C16.0310133,23.0514886 14.6234365,22.992388 13.718236,23.8318966 C12.8137278,24.6715216 12.7558189,26.091799 13.5883449,27.00402 L24.7924351,39.2756679 C25.2027572,39.7254379 25.7770006,39.9866209 26.3825055,39.999302 C26.3987707,40 26.4144592,40 26.4300322,40 C27.0184644,40 27.5845175,39.7642954 28.0015303,39.3452391 L56.3455966,10.8344042 C57.2166516,9.95894657 57.2181512,8.53715679 56.3499801,7.65937233 Z" id="Path" fill="#000000" fill-rule="nonzero"></path>
                <path d="M55.8140117,26.8140117 C54.6066602,26.8140117 53.6281367,27.7925352 53.6281367,29 C53.6281367,42.5804961 42.5804961,53.6281367 29,53.6281367 C15.4202969,53.6281367 4.37186328,42.5804961 4.37186328,29 C4.37186328,15.4202969 15.4202969,4.37186328 29,4.37186328 C30.2073516,4.37186328 31.1859883,3.39333984 31.1859883,2.18598828 C31.1859883,0.978523438 30.2073516,0 29,0 C13.0092188,0 0,13.0092188 0,29 C0,44.9901016 13.0092188,58 29,58 C44.9901016,58 58,44.9901016 58,29 C58,27.7926484 57.0214766,26.8140117 55.8140117,26.8140117 Z" id="Path" fill="#000000" fill-rule="nonzero"></path>
            </g>
        </g>
    </g>
</svg>