<?xml version="1.0" encoding="UTF-8"?>
<svg width="67px" height="58px" viewBox="0 0 67 58" version="1.1" xmlns="http://www.w3.org/2000/svg" xmlns:xlink="http://www.w3.org/1999/xlink">
    <title>Artboard Copy</title>
    <defs>
        <filter id="filter-1">
            <feColorMatrix in="SourceGraphic" type="matrix" values="0 0 0 0 0.925490 0 0 0 0 0.356863 0 0 0 0 0.356863 0 0 0 1.000000 0"></feColorMatrix>
        </filter>
    </defs>
    <g id="Artboard-Copy" stroke="none" stroke-width="1" fill="none" fill-rule="evenodd">
        <g filter="url(#filter-1)" id="error">
            <g>
                <path d="M66.2378729,43.2511688 C65.7020031,41.9170462 64.1795833,41.2671524 62.8372262,41.799735 C61.494869,42.3323175 60.840964,43.8453983 61.3768337,45.179521 C62.0580885,46.8758518 61.8347113,48.8126577 60.7791983,50.3608538 C59.7231618,51.9098303 58.0323258,52.7982483 56.1403586,52.7982483 L10.8702876,52.7982483 C8.80650186,52.7982483 6.97381407,51.7280109 5.96763511,49.9350478 C4.95988583,48.1390935 5.00725698,46.0226792 6.09430714,44.2732852 L28.7293426,7.8504885 C29.7599923,6.1920042 31.545309,5.20188179 33.5053231,5.20188179 C35.4653372,5.20188179 37.250523,6.1920042 38.2813035,7.8504885 L55.0217713,34.7883729 C55.78128,36.0105167 57.3939929,36.3896322 58.6234183,35.6343924 C59.8529745,34.8796728 60.2342991,33.2769829 59.4746595,32.0548391 L42.7340609,5.1169547 C40.7429023,1.9128754 37.2929215,0 33.5051922,0 C29.717463,0 26.2674822,1.91300546 24.2763235,5.1169547 L1.64128802,41.5398815 C-0.457175489,44.9169363 -0.548515444,49.0025406 1.39671155,52.4689445 C3.34036822,55.932357 6.88181982,58 10.8702876,58 L56.1403586,58 C59.7963123,58 63.0663612,56.2789584 65.1120883,53.278548 C67.1425049,50.3005074 67.5632183,46.5518803 66.2378729,43.2511688 Z" id="Path" fill="#D9332E"></path>
                <path d="M33.5003125,47 C34.880903,47 36,45.8807631 36,44.5 C36,43.1192369 34.880903,42 33.5003125,42 L33.4990625,42 C32.118472,42 31,43.1192369 31,44.5 C31,45.8807631 32.119722,47 33.5003125,47 Z" id="Path" fill="#D9332E"></path>
                <path d="M36,37.3262275 L36,17.6737725 C36,16.197034 34.8807631,15 33.5,15 C32.1192369,15 31,16.197034 31,17.6737725 L31,37.3262275 C31,38.802966 32.1192369,40 33.5,40 C34.8807631,40 36,38.802966 36,37.3262275 Z" id="Path" fill="#D9332E"></path>
            </g>
        </g>
    </g>
</svg>