<?xml version="1.0" encoding="UTF-8"?>
<svg width="28px" height="28px" viewBox="0 0 28 28" version="1.1" xmlns="http://www.w3.org/2000/svg" xmlns:xlink="http://www.w3.org/1999/xlink">
    <!-- Generator: Sketch 64 (93537) - https://sketch.com -->
    <title>icons/qr</title>
    <desc>Created with Sketch.</desc>
    <g id="icons/qr" stroke="none" stroke-width="1" fill="none" fill-rule="evenodd">
        <path d="M27,18 C27.5522847,18 28,18.4477153 28,19 L28,27 L28,27 C28,27.5128358 27.6139598,27.9355072 27.1166211,27.9932723 L27,28 L27,28 L19,28 C18.4477153,28 18,27.5522847 18,27 C18,26.4477153 18.4477153,26 19,26 L26,26 L26,19 C26,18.4477153 26.4477153,18 27,18 Z M1,18 C1.55228475,18 2,18.4477153 2,19 L2,19 L1.999,26 L9,26 C9.51283584,26 9.93550716,26.3860402 9.99327227,26.8833789 L10,27 C10,27.5522847 9.55228475,28 9,28 L9,28 L1,28 C0.44771525,28 -3.08864794e-15,27.5522847 -2.95337719e-15,27 L-2.95337719e-15,27 L-2.46351847e-15,19 C-2.32824772e-15,18.4477153 0.44771525,18 1,18 Z M21,5 C22.1045695,5 23,5.8954305 23,7 L23,21 C23,22.1045695 22.1045695,23 21,23 L7,23 C5.8954305,23 5,22.1045695 5,21 L5,7 C5,5.8954305 5.8954305,5 7,5 L21,5 Z M11.15,10.734375 C10.6760417,10.734375 10.2548177,10.8483073 9.88632812,11.0761719 C9.51783854,11.3040365 9.23268229,11.6308594 9.03085937,12.0566406 C8.8578683,12.421596 8.75901626,12.8358179 8.73430325,13.2993064 L8.728125,13.5351562 L8.728125,13.8164062 C8.73072917,14.3632812 8.83359375,14.8470052 9.03671875,15.2675781 C9.23984375,15.688151 9.52630208,16.0117188 9.89609375,16.2382812 C10.2658854,16.4648438 10.6864583,16.578125 11.1578125,16.578125 C11.2567708,16.578125 11.3534144,16.5729167 11.4477431,16.5625 L11.5875,16.5429688 L12.7984375,17.515625 L13.5445312,16.8554688 L12.5992187,16.1132812 C12.9039062,15.8763021 13.1421875,15.561849 13.3140625,15.1699219 C13.4572917,14.843316 13.540842,14.4683341 13.5647135,14.0449761 L13.571875,13.7851562 L13.571875,13.53125 C13.571875,12.9739583 13.4709635,12.4824219 13.2691406,12.0566406 C13.0673177,11.6308594 12.7821615,11.3040365 12.4136719,11.0761719 C12.0451823,10.8483073 11.6239583,10.734375 11.15,10.734375 Z M16.9445312,10.8125 L14.83125,10.8125 L14.83125,16.5 L16.003125,16.5 L16.003125,14.4179688 L16.9367187,14.4179688 L18.003125,16.5 L19.2609375,16.5 L19.2609375,16.4453125 L18.0304687,14.1210938 C18.3716146,13.9674479 18.6261719,13.7610677 18.7941406,13.5019531 C18.9621094,13.2428385 19.0460937,12.9192708 19.0460937,12.53125 C19.0460937,11.984375 18.8638021,11.5611979 18.4992187,11.2617188 C18.1751447,10.995515 17.7296714,10.8476241 17.162799,10.8180459 L16.9445312,10.8125 Z M11.15,11.703125 C11.5458333,11.703125 11.8505208,11.8580729 12.0640625,12.1679688 C12.2509115,12.4391276 12.356014,12.8199463 12.3793701,13.3104248 L12.384375,13.5273438 L12.384375,13.8046875 C12.3817708,14.3958333 12.275,14.8457031 12.0640625,15.1542969 C11.853125,15.4628906 11.5510417,15.6171875 11.1578125,15.6171875 C10.7567708,15.6171875 10.4494792,15.4570312 10.2359375,15.1367188 C10.0490885,14.8564453 9.943986,14.4764811 9.92062988,13.9968262 L9.915625,13.7851562 L9.915625,13.5078125 C9.91822917,12.9166667 10.0263021,12.468099 10.2398437,12.1621094 C10.4533854,11.8561198 10.7567708,11.703125 11.15,11.703125 Z M16.9445312,11.7617188 C17.2596354,11.7617188 17.4933594,11.8385417 17.6457031,11.9921875 C17.7980469,12.1458333 17.8742187,12.3567708 17.8742187,12.625 C17.8742187,12.8880208 17.7934896,13.094401 17.6320312,13.2441406 C17.4705729,13.3938802 17.2427083,13.46875 16.9484375,13.46875 L16.003125,13.46875 L16.003125,11.7617188 L16.9445312,11.7617188 Z M27,0 C27.5522847,-1.01453063e-16 28,0.44771525 28,1 L28,9 C28,9.55228475 27.5522847,10 27,10 C26.4477153,10 26,9.55228475 26,9 L26,2 L19,2 C18.4477153,2 18,1.55228475 18,1 C18,0.44771525 18.4477153,1.01453063e-16 19,0 L27,0 L27,0 Z M9,0 C9.55228475,1.01453063e-16 10,0.44771525 10,1 C10,1.55228475 9.55228475,2 9,2 L9,2 L2,2 L2,9 C2,9.51283584 1.61395981,9.93550716 1.11662113,9.99327227 L1,10 C0.44771525,10 -2.62433073e-15,9.55228475 -2.62433073e-15,9 L-2.62433073e-15,9 L-2.62433073e-15,1 C-2.40228613e-15,0.44771525 0.44771525,-1.01453063e-16 1,0 L1,0 Z" id="Combined-Shape" fill="#556B92"></path>
    </g>
</svg>